<svg width="24" height="24" viewBox="0 0 19 19" fill="none" xmlns="http://www.w3.org/2000/svg">
<path d="M3.52345 11.0107L9.0276 16.1812L9.02761 16.1812C9.14935 16.2956 9.21023 16.3528 9.27461 16.3853C9.41634 16.4569 9.58365 16.4569 9.72539 16.3853C9.78977 16.3528 9.85064 16.2956 9.97239 16.1812L9.97239 16.1812L15.4765 11.0107C17.0252 9.55589 17.2132 7.16189 15.9108 5.48314L15.6659 5.16748C14.1077 3.15921 10.9801 3.49601 9.88527 5.78997C9.73062 6.11401 9.26937 6.11401 9.11472 5.78998C8.01987 3.49601 4.89228 3.15921 3.33414 5.16748L3.08923 5.48314C1.78675 7.16189 1.97481 9.55588 3.52345 11.0107Z" stroke="white"/>
</svg>
